<svg width="43" height="35" viewBox="0 0 43 35" fill="none" xmlns="http://www.w3.org/2000/svg">
<path d="M21.5945 0C24.4139 0 27.1178 0.916522 29.1114 2.54794C31.105 4.17936 32.225 6.39204 32.225 8.69922C32.225 11.0064 31.105 13.2191 29.1114 14.8505C27.1178 16.4819 24.4139 17.3984 21.5945 17.3984C18.7751 17.3984 16.0712 16.4819 14.0775 14.8505C12.0839 13.2191 10.9639 11.0064 10.9639 8.69922C10.9639 6.39204 12.0839 4.17936 14.0775 2.54794C16.0712 0.916522 18.7751 0 21.5945 0ZM21.5945 21.748C33.3412 21.748 42.8556 25.6409 42.8556 30.4473V34.7969H0.333374V30.4473C0.333374 25.6409 9.84772 21.748 21.5945 21.748Z" fill="black"/>
</svg>
